<?xml version="1.0" standalone="no"?>
<!DOCTYPE svg PUBLIC "-//W3C//DTD SVG 20010904//EN"
 "http://www.w3.org/TR/2001/REC-SVG-20010904/DTD/svg10.dtd">
<svg version="1.0" xmlns="http://www.w3.org/2000/svg"
 width="1024.000000pt" height="1024.000000pt" viewBox="0 0 1024.000000 1024.000000"
 preserveAspectRatio="xMidYMid meet">
<metadata>
Created by potrace 1.14, written by Peter Selinger 2001-2017
</metadata>
<g transform="translate(0.000000,1024.000000) scale(0.100000,-0.100000)"
fill="#000000" stroke="none">
<path d="M4858 10235 c-2 -1 -50 -5 -108 -9 -58 -3 -116 -8 -130 -11 -14 -2
-52 -6 -85 -10 -33 -3 -76 -7 -95 -10 -58 -7 -294 -46 -300 -50 -3 -2 -26 -6
-50 -10 -25 -4 -126 -27 -225 -52 -579 -144 -1158 -407 -1645 -745 -119 -83
-361 -266 -380 -287 -3 -4 -34 -31 -70 -61 -117 -99 -367 -345 -476 -469 -22
-24 -55 -63 -75 -85 -193 -221 -455 -604 -604 -881 -132 -246 -250 -514 -335
-760 -69 -202 -140 -458 -174 -635 -2 -14 -9 -47 -15 -75 -6 -27 -13 -66 -16
-85 -12 -77 -34 -238 -40 -285 -3 -27 -8 -63 -10 -80 -26 -192 -26 -858 0
-1016 2 -13 6 -51 10 -84 3 -33 8 -76 10 -95 11 -75 27 -176 31 -200 3 -14 7
-38 9 -55 6 -39 13 -73 19 -93 3 -9 8 -33 11 -52 6 -36 59 -251 75 -305 34
-113 103 -333 110 -350 5 -11 29 -72 54 -135 111 -287 259 -578 449 -884 62
-100 346 -489 377 -516 3 -3 47 -52 97 -110 663 -761 1587 -1330 2563 -1578
139 -35 204 -50 249 -57 19 -3 37 -7 40 -9 3 -2 26 -7 51 -10 25 -3 56 -8 70
-11 67 -14 183 -30 280 -40 30 -4 71 -8 90 -10 220 -26 874 -26 1009 0 9 2 47
6 83 9 37 4 75 8 85 10 10 2 41 7 68 10 42 6 118 19 235 40 305 56 725 184
1010 308 122 53 296 132 305 139 6 4 53 29 105 57 379 197 797 497 1104 791
270 258 465 482 673 772 77 107 243 362 243 374 0 2 20 37 44 77 46 79 174
332 220 438 103 234 241 631 271 778 2 9 15 64 29 122 27 112 52 234 61 297 4
21 10 63 15 93 11 63 17 110 26 195 3 33 7 71 10 85 25 160 25 852 0 1000 -3
14 -7 52 -10 85 -8 77 -15 133 -21 165 -3 14 -7 43 -11 65 -16 117 -45 257
-85 418 -71 285 -145 504 -280 827 -34 82 -208 423 -263 515 -336 566 -752
1046 -1249 1438 -245 194 -502 363 -762 502 -49 27 -97 52 -105 56 -33 18
-270 129 -276 129 -3 0 -41 15 -84 34 -334 147 -838 283 -1270 341 -25 3 -56
8 -70 10 -14 2 -61 7 -105 10 -44 4 -98 9 -120 12 -47 4 -642 13 -647 8z"/>
</g>
</svg>
