<?xml version="1.0" standalone="no"?>
<!DOCTYPE svg PUBLIC "-//W3C//DTD SVG 20010904//EN"
 "http://www.w3.org/TR/2001/REC-SVG-20010904/DTD/svg10.dtd">
<svg version="1.0" xmlns="http://www.w3.org/2000/svg"
 width="1024.000000pt" height="1024.000000pt" viewBox="0 0 1024.000000 1024.000000"
 preserveAspectRatio="xMidYMid meet">
<metadata>
Created by potrace 1.14, written by Peter Selinger 2001-2017
</metadata>
<g transform="translate(0.000000,1024.000000) scale(0.100000,-0.100000)"
fill="#000000" stroke="none">
<path d="M5813 8885 c-52 -16 -120 -55 -198 -113 -76 -58 -395 -376 -421 -420
-21 -38 -6 -38 -199 -7 -139 23 -461 31 -578 15 -387 -52 -499 -247 -271 -474
112 -113 288 -212 545 -307 l117 -43 -25 -37 c-31 -47 -67 -154 -82 -244 l-12
-70 -102 0 c-118 0 -156 -14 -222 -80 -58 -58 -79 -106 -83 -197 -6 -107 38
-229 124 -351 37 -51 39 -57 24 -57 -25 0 -126 -46 -179 -81 -161 -107 -149
-253 27 -347 77 -41 156 -58 327 -72 141 -11 195 -18 195 -26 0 -2 -10 -19
-22 -38 -19 -28 -31 -35 -97 -50 -42 -10 -116 -33 -165 -52 l-90 -33 -62 30
c-128 61 -291 89 -513 89 -281 0 -473 -58 -711 -214 l-85 -55 -14 47 c-80 273
-152 444 -245 587 -71 109 -124 166 -210 227 -82 57 -155 82 -292 98 -258 31
-592 -60 -825 -225 l-46 -33 -46 34 c-375 272 -587 359 -587 240 0 -63 139
-189 412 -374 l138 -93 0 -399 0 -399 -52 -19 c-87 -32 -213 -61 -432 -97
l-207 -34 -55 20 c-65 25 -80 45 -87 122 -7 72 -35 112 -104 150 -104 56 -183
65 -318 35 -61 -13 -75 -23 -75 -54 0 -28 1 -29 71 -8 176 54 369 -20 369
-141 0 -52 12 -87 40 -115 25 -25 35 -22 -161 -54 -173 -27 -229 -45 -229 -73
0 -10 19 -60 42 -110 23 -51 39 -95 37 -98 -3 -2 -43 7 -88 21 -46 14 -85 24
-87 21 -2 -2 -1 -17 2 -34 5 -28 13 -32 111 -64 l106 -34 83 -187 c163 -365
208 -539 251 -968 6 -58 12 -75 24 -78 10 -2 111 49 227 112 222 121 452 239
457 234 4 -4 33 -321 50 -553 25 -346 38 -684 32 -847 l-6 -157 -35 -48 c-48
-68 -89 -153 -123 -258 -46 -137 -46 -140 -20 -170 l22 -27 27 96 c55 194 143
358 232 431 51 42 170 98 244 115 83 19 198 9 265 -23 102 -50 183 -159 217
-292 25 -98 25 -163 0 -307 -35 -200 -34 -200 -197 -281 -183 -93 -358 -101
-508 -25 l-39 21 32 -37 c93 -107 508 -471 535 -471 21 0 136 357 200 620 65
263 69 383 21 537 -40 127 -110 213 -237 293 -15 9 -15 16 4 80 130 454 208
893 181 1023 -27 129 -113 121 -185 -16 -77 -146 -148 -418 -216 -831 l-37
-224 -70 -17 c-70 -18 -143 -49 -207 -89 l-34 -21 -6 308 c-6 313 -22 577 -57
961 -24 260 -24 247 -2 254 9 3 67 28 127 55 305 138 584 192 1002 192 103 0
194 4 202 9 17 11 15 24 -33 256 -62 307 -116 704 -116 865 l0 70 105 -76 c58
-42 105 -77 105 -78 0 -1 -14 -42 -30 -92 -89 -260 -91 -461 -8 -541 42 -40
76 -53 142 -53 116 0 220 56 268 146 33 60 51 168 42 242 l-7 54 30 -15 c16
-9 77 -44 135 -79 100 -60 105 -64 96 -88 -18 -46 -13 -151 9 -200 23 -53 88
-115 147 -141 97 -42 220 -39 298 9 l37 23 231 -127 c169 -93 230 -131 226
-141 -4 -8 -9 -25 -12 -37 -5 -20 -9 -21 -62 -15 -89 11 -362 10 -448 -2 -206
-28 -406 -106 -529 -206 -122 -99 -207 -237 -246 -398 -21 -92 -19 -125 10
-125 10 0 51 13 91 30 136 56 299 104 406 119 l51 7 -38 -58 c-89 -139 -140
-310 -143 -478 -1 -130 5 -165 34 -180 32 -17 58 -3 145 79 151 145 271 216
415 246 68 14 210 21 210 10 0 -3 -7 -16 -15 -29 -8 -12 -29 -60 -45 -105 -93
-255 -77 -602 45 -987 31 -100 32 -105 11 -85 -32 30 -66 28 -66 -3 0 -61 202
-185 334 -206 89 -14 238 2 317 34 90 36 150 93 136 130 -10 25 -39 19 -71
-14 -59 -63 -62 -62 -110 42 -87 185 -171 452 -190 606 l-7 53 69 -71 c86 -87
115 -93 132 -27 24 98 33 125 62 179 17 32 45 75 63 95 l33 38 29 -21 c15 -11
40 -38 56 -60 27 -38 27 -43 31 -204 2 -119 9 -192 24 -263 44 -199 115 -367
202 -475 28 -34 50 -64 50 -66 0 -3 -19 -4 -42 -3 -37 2 -43 -1 -46 -20 -3
-19 6 -25 78 -47 241 -77 477 -73 638 8 64 32 125 89 120 113 -6 31 -35 26
-88 -16 -29 -23 -55 -41 -60 -41 -12 0 -157 156 -212 230 -80 105 -138 238
-160 371 -11 62 -10 73 6 102 80 138 191 272 274 329 24 16 45 28 47 26 2 -2
-12 -63 -30 -136 -49 -194 -75 -358 -75 -482 0 -113 11 -164 37 -175 25 -9 39
14 51 85 16 88 81 217 146 287 45 49 173 139 183 130 1 -2 -7 -30 -18 -63 -25
-69 -37 -224 -20 -266 12 -32 41 -37 62 -12 40 49 190 127 272 143 l44 8 -34
-56 c-38 -62 -78 -183 -69 -206 7 -20 32 -19 99 4 66 23 187 47 277 56 58 5
185 -7 197 -19 8 -7 -85 -146 -131 -196 -35 -39 -59 -61 -138 -126 -26 -20
-22 -32 15 -54 46 -29 228 -86 319 -100 107 -17 258 -8 328 19 30 11 58 21 62
21 12 0 -11 -62 -36 -101 -14 -21 -46 -52 -71 -69 -26 -18 -45 -39 -45 -50 0
-28 93 -161 161 -230 33 -34 86 -78 118 -98 l57 -38 -125 -23 c-455 -86 -947
-254 -1265 -434 -65 -37 -122 -65 -126 -62 -4 2 -10 23 -14 45 -7 47 -64 116
-113 137 -45 18 -121 16 -168 -6 -22 -10 -77 -45 -122 -79 -123 -91 -158 -107
-182 -78 -14 16 0 49 51 123 100 147 102 224 5 287 -46 29 -91 33 -140 13 -48
-21 -141 -127 -247 -282 -148 -218 -297 -395 -332 -395 -5 0 -8 24 -8 53 0 56
26 135 104 322 45 107 57 175 40 220 -18 47 -135 59 -229 24 -68 -25 -157
-105 -223 -198 -25 -36 -46 -67 -46 -68 -1 0 -66 21 -146 49 -333 114 -675
208 -967 268 -262 53 -412 71 -643 77 -195 4 -231 3 -385 -20 -93 -14 -209
-29 -257 -33 -49 -4 -88 -10 -88 -14 0 -15 74 -60 84 -50 6 6 23 10 40 10 16
0 109 12 205 26 161 24 195 26 396 21 234 -6 365 -21 640 -78 295 -60 732
-181 991 -274 l100 -36 -50 -97 c-59 -115 -226 -471 -226 -483 0 -5 12 -9 28
-9 24 0 30 8 61 78 77 174 232 482 280 553 67 101 134 174 189 206 37 22 58
27 116 27 l71 1 -1 -50 c0 -37 -15 -84 -57 -182 -71 -169 -87 -222 -87 -300 0
-66 20 -103 55 -103 71 0 189 124 375 395 197 288 259 337 339 269 51 -43 48
-55 -66 -239 -17 -27 -34 -67 -38 -87 -6 -33 -4 -41 24 -69 29 -28 36 -31 77
-26 33 3 64 18 112 51 37 26 95 67 128 90 77 54 114 61 174 33 52 -25 93 -91
88 -142 -3 -27 -21 -41 -220 -162 -232 -140 -457 -289 -557 -369 l-61 -49 37
-3 c29 -3 47 4 87 33 289 208 900 578 1124 682 459 211 1051 357 1703 419 156
15 177 20 207 42 18 14 30 27 28 30 -7 6 -233 -14 -451 -40 -170 -20 -183 -20
-236 -5 -107 31 -231 135 -316 263 l-34 52 49 47 c60 55 90 115 98 193 5 46 3
60 -10 71 -14 12 -23 10 -64 -12 -108 -58 -242 -72 -399 -42 -71 14 -233 62
-233 70 0 2 31 34 68 71 99 99 211 274 194 302 -11 17 -58 32 -138 43 -90 12
-233 -1 -357 -35 l-86 -22 18 46 c17 43 49 95 102 162 31 38 19 58 -33 58
-104 -1 -239 -45 -334 -111 l-47 -32 6 69 c7 79 37 172 72 226 52 79 1 87
-133 22 -99 -49 -221 -167 -276 -269 l-37 -70 6 75 c7 96 45 282 88 435 19 66
32 126 29 133 -7 20 -65 14 -121 -14 -65 -33 -170 -135 -240 -234 -48 -67 -52
-71 -46 -40 38 186 150 321 310 375 80 27 198 36 311 25 203 -21 181 -9 801
-418 307 -203 695 -461 863 -573 370 -248 490 -322 522 -317 38 5 32 32 -21
86 -61 62 -69 78 -120 226 -23 65 -50 135 -62 155 -13 23 -62 68 -132 120
-117 87 -727 495 -1073 717 l-201 128 104 117 c219 245 384 475 442 613 38 92
92 278 122 418 l22 105 106 7 c143 9 322 33 459 60 l113 23 -7 -136 c-7 -156
8 -326 32 -374 47 -91 113 -77 264 55 191 167 382 416 431 562 l17 49 15 -29
c50 -98 87 -264 94 -424 5 -135 -8 -222 -62 -400 -34 -110 -43 -222 -22 -272
25 -59 68 -80 152 -75 103 7 228 48 430 141 198 92 235 106 276 106 43 0 59
-24 59 -86 0 -112 -60 -224 -192 -360 -108 -112 -107 -114 81 -114 146 0 148
0 159 24 10 22 8 24 -26 30 -20 3 -70 6 -111 6 l-74 0 45 48 c179 192 235 438
113 496 -43 21 -60 20 -137 -4 -34 -11 -64 -20 -65 -20 -7 0 -2 155 7 255 32
345 123 626 262 810 64 85 198 219 301 300 70 56 76 63 76 98 l1 38 -77 -63
c-116 -94 -219 -190 -281 -260 -212 -243 -314 -546 -344 -1027 l-12 -184 -121
-57 c-176 -84 -352 -136 -416 -123 -77 15 -83 102 -19 318 52 181 67 308 51
451 -20 177 -70 341 -132 431 -47 68 -82 56 -92 -30 -11 -107 -127 -283 -319
-482 -117 -122 -218 -205 -249 -205 -10 0 -23 10 -30 22 -19 35 -32 235 -24
370 l7 126 81 22 c234 63 428 148 602 262 146 95 230 166 312 260 256 295 324
621 188 894 -20 39 -56 94 -81 122 l-45 52 63 40 c102 66 316 167 413 195 82
24 184 43 308 60 42 6 48 9 45 28 -3 20 -8 22 -73 20 -205 -7 -476 -102 -709
-248 l-89 -56 -41 29 c-115 82 -227 116 -366 110 -80 -3 -105 -8 -155 -33 -77
-37 -189 -146 -203 -198 -19 -68 9 -121 83 -161 34 -18 56 -21 150 -21 151 0
247 33 442 151 39 24 76 44 81 44 18 0 93 -93 122 -150 54 -109 65 -156 64
-280 0 -102 -4 -126 -33 -210 -112 -330 -399 -595 -828 -763 -100 -40 -324
-110 -330 -104 -6 7 36 207 63 301 36 120 86 253 178 470 114 268 127 332 71
358 -20 9 -31 6 -69 -16 -129 -75 -417 -383 -821 -876 l-118 -145 6 70 c25
268 29 365 24 650 -5 327 -12 394 -63 585 -53 203 -167 470 -292 685 -57 100
-190 301 -250 379 l-45 58 29 -6 c103 -21 352 -38 484 -33 167 7 260 24 347
67 70 35 107 73 124 130 51 169 -273 391 -883 605 l-108 38 0 144 c0 260 -34
467 -97 593 -32 64 -45 78 -83 98 -70 36 -147 27 -285 -33 -82 -36 -125 -50
-170 -52 -91 -6 -107 8 -209 168 -29 45 -50 66 -80 80 -48 22 -66 22 -123 4z
m114 -60 c12 -9 45 -53 73 -100 58 -96 93 -130 153 -146 58 -15 123 -6 209 32
158 68 170 71 237 67 54 -3 67 -8 86 -31 80 -92 138 -463 115 -741 -17 -213
-58 -346 -126 -406 l-35 -30 -132 0 c-202 0 -435 33 -749 105 -429 99 -580
170 -643 300 -24 49 -27 64 -23 125 10 134 114 302 310 502 267 270 444 379
525 323z m-947 -537 c80 -11 146 -21 147 -22 2 -1 -15 -37 -36 -80 -144 -285
-20 -480 380 -595 362 -105 717 -168 999 -177 148 -5 157 -5 200 18 82 43 134
136 167 304 20 102 -7 101 243 7 456 -169 720 -345 720 -478 0 -59 -104 -123
-246 -150 -208 -40 -625 -2 -1264 116 -969 179 -1693 397 -1991 600 -135 91
-229 219 -215 293 31 162 412 232 896 164z m-253 -1182 c170 -58 407 -214 635
-419 l78 -69 -48 -46 c-26 -26 -60 -72 -76 -102 l-29 -56 -106 28 c-187 49
-333 70 -511 73 l-165 4 -37 48 c-53 68 -115 197 -129 270 -25 135 50 262 175
294 46 12 136 1 213 -25z m1163 -516 c82 -41 198 -156 270 -265 161 -247 254
-576 209 -738 -17 -62 -55 -79 -164 -74 -250 13 -633 232 -785 449 -67 95 -95
180 -95 288 0 183 81 306 238 362 41 15 73 18 157 15 95 -3 111 -7 170 -37z
m-3509 -55 c82 -17 138 -44 204 -99 163 -135 288 -366 386 -715 16 -58 29
-105 29 -107 0 -1 -34 -32 -75 -69 l-75 -67 -83 53 c-82 54 -211 177 -592 568
-178 182 -225 221 -266 221 -24 0 -30 -6 -38 -36 -11 -39 -1 -109 25 -170 17
-40 18 -74 3 -74 -23 0 -409 264 -409 279 0 24 223 140 349 181 47 15 120 33
161 39 41 6 86 13 100 15 42 7 211 -4 281 -19z m6606 -334 c28 -11 74 -34 103
-52 l51 -31 -53 -32 c-204 -123 -280 -150 -423 -151 -83 0 -106 3 -135 20 -44
26 -51 69 -21 119 22 36 104 102 159 130 73 37 221 36 319 -3z m-7421 -189
c172 -107 334 -202 457 -267 l77 -42 -177 -85 c-168 -81 -451 -207 -500 -222
l-23 -7 0 360 c0 199 2 361 4 361 2 0 75 -44 162 -98z m2524 -167 c101 -15
187 -38 233 -62 l28 -14 -58 -31 c-231 -122 -532 -381 -702 -605 -50 -66 -56
-70 -75 -58 -12 7 -105 63 -208 124 l-186 111 -12 72 c-6 40 -18 102 -26 137
-16 73 -25 60 86 135 129 87 288 156 430 186 108 24 355 26 490 5z m4370 -262
c-7 -21 -44 -112 -82 -203 -147 -345 -211 -534 -243 -725 -9 -55 -22 -103 -28
-107 -31 -19 -371 -71 -551 -84 l-98 -7 7 43 c8 45 0 34 269 359 365 440 720
814 734 772 2 -6 -2 -28 -8 -48z m-5432 -90 c6 -27 14 -70 18 -98 l7 -49 -24
15 c-13 9 -45 28 -71 43 -27 15 -48 31 -48 34 0 9 93 102 101 102 4 0 12 -21
17 -47z m-611 -3 l53 -41 0 -97 c0 -185 51 -570 119 -908 l37 -181 -231 -6
c-219 -6 -378 -21 -519 -51 -53 -11 -66 -11 -70 0 -3 8 28 28 88 58 166 81
248 179 248 297 0 115 -67 196 -185 225 -59 15 -78 15 -150 4 -121 -18 -122
-18 -125 7 -4 25 -4 25 202 69 78 17 130 34 134 42 2 8 -7 59 -22 115 -15 56
-32 119 -37 140 -13 48 -17 48 -196 -5 -79 -23 -145 -39 -148 -36 -3 3 -6 22
-8 42 l-2 38 150 52 c216 75 469 188 570 255 17 11 32 20 34 20 2 1 28 -17 58
-39z m2296 -122 c24 -48 25 -53 9 -64 -176 -124 -239 -254 -230 -469 4 -89 11
-127 37 -203 31 -89 32 -95 16 -118 l-16 -25 -32 18 c-18 11 -129 75 -249 143
l-216 123 -5 41 c-2 23 -8 50 -11 61 -6 17 21 48 156 180 175 172 296 264 422
326 44 22 83 39 87 39 3 0 18 -23 32 -52z m-1858 -198 c22 -15 81 -50 131 -79
103 -58 104 -58 104 -197 0 -162 -76 -254 -222 -269 -136 -15 -190 87 -154
291 20 120 76 295 90 287 6 -4 29 -19 51 -33z m-1477 -81 c9 -37 8 -41 -11
-48 -303 -116 -337 -146 -345 -307 -10 -195 85 -308 269 -322 60 -4 170 8 216
25 15 5 16 4 5 -8 -7 -7 -97 -41 -200 -75 -123 -41 -188 -67 -190 -77 -4 -20
66 -245 78 -252 6 -3 91 19 191 50 99 31 186 54 191 53 6 -2 -31 -21 -83 -43
-52 -21 -229 -106 -394 -189 -164 -83 -302 -152 -306 -154 -3 -1 -9 59 -13
135 -14 282 -53 554 -100 693 -34 100 -68 153 -162 250 l-83 86 282 67 c155
38 354 87 442 111 205 56 200 56 213 5z m552 -49 c12 -50 21 -93 18 -95 -5 -5
-230 -55 -262 -58 -17 -2 -22 9 -37 83 -9 47 -16 86 -14 88 6 6 231 70 251 71
17 1 23 -11 44 -89z m-480 -295 c28 -126 48 -235 46 -241 -6 -17 -137 -37
-205 -32 -131 9 -200 79 -209 212 -6 95 10 148 53 183 36 30 258 127 262 115
2 -4 25 -110 53 -237z m507 -20 c153 -46 170 -224 32 -335 -43 -34 -165 -100
-186 -100 -6 0 -17 26 -23 58 -7 31 -27 125 -44 209 l-33 152 56 12 c31 6 61
13 66 14 26 8 86 4 132 -10z m-404 -447 c9 -45 16 -82 15 -84 -5 -4 -332 -104
-333 -101 -8 10 -45 150 -41 154 7 7 308 110 326 111 12 2 20 -19 33 -80z
m2706 -145 l63 -6 -6 -30 c-18 -90 -25 -209 -16 -284 15 -131 54 -225 145
-349 14 -20 13 -22 -40 -58 -30 -21 -69 -55 -88 -75 l-32 -36 -80 3 c-228 10
-414 -69 -614 -261 -102 -97 -107 -94 -98 58 11 169 84 370 183 499 40 52 41
61 13 76 -45 24 -283 -23 -472 -95 -55 -20 -101 -34 -104 -32 -9 9 30 123 65
192 47 91 171 217 265 270 88 48 247 100 368 118 100 16 344 21 448 10z
m-2158 -500 c33 -84 -39 -509 -163 -958 l-33 -120 -55 3 c-30 2 -56 5 -59 7
-7 7 67 431 105 600 64 288 142 495 186 495 5 0 13 -12 19 -27z m2819 -481
c41 -16 109 -37 150 -47 41 -9 80 -19 87 -20 8 -3 3 -23 -16 -67 -16 -35 -37
-89 -47 -120 l-17 -57 -48 44 c-69 65 -93 74 -127 48 -47 -35 -126 -162 -153
-245 -13 -43 -27 -78 -31 -78 -13 0 -77 83 -99 129 -14 28 -24 73 -27 118 -4
64 -1 78 26 137 17 36 50 84 74 108 44 44 125 92 143 84 6 -3 44 -18 85 -34z"/>
<path d="M4650 6877 c-72 -37 -59 -148 29 -240 45 -49 80 -67 126 -67 62 0
115 53 115 115 0 117 -173 241 -270 192z m148 -84 c50 -41 76 -92 62 -127 -5
-14 -21 -32 -36 -38 -22 -10 -32 -9 -62 7 -66 36 -127 157 -94 189 16 17 94
-2 130 -31z"/>
<path d="M5618 6301 c-32 -28 -33 -32 -33 -103 0 -62 5 -81 30 -127 38 -69 82
-103 143 -108 84 -7 146 51 146 136 -1 107 -118 231 -218 231 -25 0 -45 -9
-68 -29z m140 -53 c72 -44 115 -156 76 -199 -30 -33 -60 -41 -99 -25 -84 36
-138 219 -72 246 26 10 51 4 95 -22z"/>
<path d="M9180 2909 c-148 -41 -256 -115 -319 -220 -32 -55 -61 -181 -61 -269
0 -89 21 -218 49 -310 l20 -64 -28 -51 c-35 -62 -76 -164 -96 -241 -20 -78
-36 -230 -26 -256 7 -20 8 -20 28 5 14 18 23 49 27 98 15 143 73 308 158 444
124 197 350 418 603 590 92 62 103 73 127 119 l19 38 -41 -23 c-41 -23 -42
-23 -52 -4 -24 45 -115 122 -163 138 -54 19 -187 22 -245 6z m243 -64 c44 -21
91 -65 112 -105 l15 -28 -96 -68 c-194 -138 -401 -333 -503 -476 -19 -27 -38
-48 -42 -48 -11 0 -39 126 -48 218 -18 172 21 314 109 402 107 107 337 160
453 105z"/>
<path d="M3975 2180 c-186 -49 -274 -127 -247 -218 24 -80 171 -195 303 -237
109 -34 171 -41 188 -21 23 28 5 43 -64 55 -131 23 -245 80 -324 162 -90 94
-42 140 229 217 28 8 39 40 18 53 -17 11 -21 11 -103 -11z"/>
<path d="M3224 1735 c-16 -41 62 -190 133 -255 61 -56 129 -83 200 -78 44 3
48 5 48 28 0 23 -5 25 -55 31 -125 14 -218 106 -274 272 -7 21 -44 23 -52 2z"/>
<path d="M4908 1704 c-102 -36 -236 -49 -359 -35 -85 9 -105 9 -116 -2 -23
-23 -4 -45 45 -54 26 -4 110 -8 187 -8 113 1 155 5 218 23 109 31 139 48 135
75 -4 29 -28 30 -110 1z"/>
<path d="M6004 1536 c-109 -56 -212 -81 -339 -80 -121 0 -192 14 -308 61 -93
36 -117 37 -117 3 0 -16 15 -28 67 -51 121 -55 203 -72 358 -73 164 -1 220 12
363 81 76 37 92 49 92 68 0 18 -23 41 -33 34 -1 -1 -39 -20 -83 -43z"/>
<path d="M6530 1535 c-20 -24 -7 -39 63 -73 69 -34 113 -76 124 -120 15 -62
-80 -166 -205 -224 -102 -47 -181 -61 -342 -62 -142 -1 -145 -2 -148 -24 -5
-36 35 -45 188 -39 216 8 373 63 480 167 137 133 115 267 -58 354 -70 35 -87
39 -102 21z"/>
<path d="M4964 1335 c-10 -24 2 -41 55 -84 85 -66 231 -109 335 -97 53 6 70
20 56 47 -8 14 -29 18 -112 21 -118 5 -187 30 -255 92 -43 38 -70 46 -79 21z"/>
</g>
</svg>
